# MagicaVoxel @ Ephtracy

# group
o 

# material
mtllib Note.mtl
usemtl palette

# normals
vn -1 0 0
vn 1 0 0
vn 0 0 1
vn 0 0 -1
vn 0 -1 0
vn 0 1 0

# texcoords
vt 0.00195312 0.5
vt 0.119141 0.5
vt 0.373047 0.5
vt 0.388672 0.5

# verts
v -0.3 0.2 0.2
v -0.3 0.2 -0.1
v -0.3 0.3 0.2
v -0.3 0.3 0
v -0.3 0.3 -0.1
v -0.3 0.8 0.2
v -0.3 0.8 0
v -0.3 0.9 0.2
v -0.3 0.9 0
v -0.2 0.1 0.2
v -0.2 0.1 -0.1
v -0.2 0.2 0.2
v -0.2 0.2 -0.1
v -0.1 0.1 0
v -0.1 0.1 -0.1
v -0.1 0.3 0
v -0.1 0.3 -0.1
v 0.3 0.1 0.2
v 0.3 0.1 0
v 0.3 0.8 0.2
v 0.3 0.8 0
v 0.3 0.9 0.2
v 0.3 0.9 0
v -0.3 0.2 0.2
v -0.3 0.3 0.2
v -0.3 0.8 0.2
v -0.3 0.9 0.2
v -0.2 0.1 0.2
v -0.2 0.2 0.2
v -0.2 0.3 0.2
v -0.1 0.1 0.2
v -0.1 0.2 0.2
v 0.3 0.1 0.2
v 0.3 0.8 0.2
v 0.3 0.9 0.2
v -0.3 0.3 0
v -0.3 0.8 0
v -0.3 0.9 0
v -0.2 0.4 0
v -0.2 0.5 0
v -0.2 0.6 0
v -0.2 0.7 0
v -0.1 0.1 0
v -0.1 0.3 0
v 0 0.2 0
v 0 0.3 0
v 0.2 0.2 0
v 0.2 0.3 0
v 0.2 0.4 0
v 0.2 0.5 0
v 0.2 0.6 0
v 0.2 0.7 0
v 0.3 0.1 0
v 0.3 0.8 0
v 0.3 0.9 0
v -0.3 0.2 -0.1
v -0.3 0.3 -0.1
v -0.2 0.1 -0.1
v -0.2 0.2 -0.1
v -0.1 0.1 -0.1
v -0.1 0.3 -0.1
v -0.2 0.1 0.2
v -0.1 0.1 0.2
v 0.3 0.1 0.2
v -0.1 0.1 0
v 0.3 0.1 0
v -0.2 0.1 -0.1
v -0.1 0.1 -0.1
v -0.3 0.2 0.2
v -0.2 0.2 0.2
v -0.3 0.2 -0.1
v -0.2 0.2 -0.1
v -0.3 0.3 0
v -0.1 0.3 0
v -0.3 0.3 -0.1
v -0.1 0.3 -0.1
v -0.3 0.9 0.2
v 0.3 0.9 0.2
v -0.3 0.9 0
v 0.3 0.9 0

# faces
f 3/3/1 2/3/1 1/3/1
f 4/3/1 2/3/1 3/3/1
f 5/3/1 2/3/1 4/3/1
f 6/4/1 4/4/1 3/4/1
f 7/4/1 4/4/1 6/4/1
f 8/2/1 7/2/1 6/2/1
f 9/2/1 7/2/1 8/2/1
f 12/3/1 11/3/1 10/3/1
f 13/3/1 11/3/1 12/3/1
f 14/3/2 15/3/2 16/3/2
f 16/3/2 15/3/2 17/3/2
f 18/4/2 19/4/2 20/4/2
f 20/4/2 19/4/2 21/4/2
f 20/2/2 21/2/2 22/2/2
f 22/2/2 21/2/2 23/2/2
f 29/3/3 25/3/3 24/3/3
f 30/4/3 26/4/3 25/4/3
f 30/3/3 25/3/3 29/3/3
f 31/3/3 29/3/3 28/3/3
f 32/4/3 30/4/3 29/4/3
f 32/3/3 29/3/3 31/3/3
f 33/4/3 32/4/3 31/4/3
f 34/2/3 27/2/3 26/2/3
f 34/4/3 32/4/3 33/4/3
f 34/4/3 26/4/3 30/4/3
f 34/4/3 30/4/3 32/4/3
f 35/2/3 27/2/3 34/2/3
f 36/4/4 37/4/4 39/4/4
f 39/4/4 37/4/4 40/4/4
f 40/4/4 37/4/4 41/4/4
f 41/4/4 37/4/4 42/4/4
f 36/4/4 39/4/4 44/4/4
f 43/4/4 44/4/4 45/4/4
f 44/4/4 39/4/4 46/4/4
f 45/4/4 44/4/4 46/4/4
f 43/4/4 45/4/4 47/4/4
f 45/1/4 46/1/4 47/1/4
f 46/4/4 39/4/4 48/4/4
f 47/1/4 46/1/4 48/1/4
f 39/1/4 40/1/4 49/1/4
f 48/4/4 39/4/4 49/4/4
f 40/4/4 41/4/4 50/4/4
f 49/1/4 40/1/4 50/1/4
f 41/1/4 42/1/4 51/1/4
f 50/4/4 41/4/4 51/4/4
f 42/4/4 37/4/4 52/4/4
f 51/1/4 42/1/4 52/1/4
f 50/4/4 51/4/4 53/4/4
f 47/4/4 48/4/4 53/4/4
f 51/4/4 52/4/4 53/4/4
f 43/4/4 47/4/4 53/4/4
f 48/4/4 49/4/4 53/4/4
f 49/4/4 50/4/4 53/4/4
f 37/2/4 38/2/4 54/2/4
f 53/4/4 52/4/4 54/4/4
f 52/4/4 37/4/4 54/4/4
f 54/2/4 38/2/4 55/2/4
f 56/3/4 57/3/4 59/3/4
f 58/3/4 59/3/4 60/3/4
f 59/3/4 57/3/4 61/3/4
f 60/3/4 59/3/4 61/3/4
f 65/3/5 63/3/5 62/3/5
f 65/4/5 64/4/5 63/4/5
f 66/4/5 64/4/5 65/4/5
f 67/3/5 65/3/5 62/3/5
f 68/3/5 65/3/5 67/3/5
f 71/3/5 70/3/5 69/3/5
f 72/3/5 70/3/5 71/3/5
f 73/3/6 74/3/6 75/3/6
f 75/3/6 74/3/6 76/3/6
f 77/2/6 78/2/6 79/2/6
f 79/2/6 78/2/6 80/2/6
