# MagicaVoxel @ Ephtracy

# group
o 

# material
mtllib SignButton2 - Test.mtl
usemtl palette

# normals
vn -1 0 0
vn 1 0 0
vn 0 0 1
vn 0 0 -1
vn 0 -1 0
vn 0 1 0

# texcoords
vt 0.974609 0.5
vt 0.986328 0.5
vt 0.990234 0.5

# verts
v -1.3 0.4 0.2
v -1.3 0.4 -0.0999999
v -1.3 1 0.2
v -1.3 1 -0.0999999
v -1.2 0.3 0.2
v -1.2 0.3 -0.0999999
v -1.2 0.4 0.2
v -1.2 0.4 -0.0999999
v -1.2 1 0.2
v -1.2 1 -0.0999999
v -1.2 1.1 0.2
v -1.2 1.1 -0.0999999
v -1.1 0.2 0.2
v -1.1 0.2 -0.0999999
v -1.1 0.3 0.2
v -1.1 0.3 -0.0999999
v -1.1 1.1 0.2
v -1.1 1.1 -0.0999999
v -1.1 1.2 0.2
v -1.1 1.2 -0.0999999
v 1 0.4 5.96046e-08
v 1 0.4 -0.0999999
v 1 0.5 5.96046e-08
v 1 0.5 -0.0999999
v 1 0.9 5.96046e-08
v 1 0.9 -0.0999999
v 1 1 5.96046e-08
v 1 1 -0.0999999
v 1.1 0.5 5.96046e-08
v 1.1 0.5 -0.0999999
v 1.1 0.9 5.96046e-08
v 1.1 0.9 -0.0999999
v -1.1 0.5 5.96046e-08
v -1.1 0.5 -0.0999999
v -1.1 0.9 5.96046e-08
v -1.1 0.9 -0.0999999
v -1 0.4 5.96046e-08
v -1 0.4 -0.0999999
v -1 0.5 5.96046e-08
v -1 0.5 -0.0999999
v -1 0.9 5.96046e-08
v -1 0.9 -0.0999999
v -1 1 5.96046e-08
v -1 1 -0.0999999
v 1.1 0.2 0.2
v 1.1 0.2 -0.0999999
v 1.1 0.3 0.2
v 1.1 0.3 -0.0999999
v 1.1 1.1 0.2
v 1.1 1.1 -0.0999999
v 1.1 1.2 0.2
v 1.1 1.2 -0.0999999
v 1.2 0.3 0.2
v 1.2 0.3 -0.0999999
v 1.2 0.4 0.2
v 1.2 0.4 -0.0999999
v 1.2 1 0.2
v 1.2 1 -0.0999999
v 1.2 1.1 0.2
v 1.2 1.1 -0.0999999
v 1.3 0.4 0.2
v 1.3 0.4 -0.0999999
v 1.3 1 0.2
v 1.3 1 -0.0999999
v -1.3 0.4 0.2
v -1.3 1 0.2
v -1.2 0.3 0.2
v -1.2 0.4 0.2
v -1.2 1 0.2
v -1.2 1.1 0.2
v -1.1 0.2 0.2
v -1.1 0.3 0.2
v -1.1 0.4 0.2
v -1.1 1 0.2
v -1.1 1.1 0.2
v -1.1 1.2 0.2
v 1.1 0.2 0.2
v 1.1 0.3 0.2
v 1.1 0.4 0.2
v 1.1 1 0.2
v 1.1 1.1 0.2
v 1.1 1.2 0.2
v 1.2 0.3 0.2
v 1.2 0.4 0.2
v 1.2 1 0.2
v 1.2 1.1 0.2
v 1.3 0.4 0.2
v 1.3 1 0.2
v -1.1 0.5 5.96046e-08
v -1.1 0.9 5.96046e-08
v -1 0.4 5.96046e-08
v -1 0.5 5.96046e-08
v -1 0.9 5.96046e-08
v -1 1 5.96046e-08
v 1 0.4 5.96046e-08
v 1 0.5 5.96046e-08
v 1 0.9 5.96046e-08
v 1 1 5.96046e-08
v 1.1 0.5 5.96046e-08
v 1.1 0.9 5.96046e-08
v -1.3 0.4 -0.0999999
v -1.3 1 -0.0999999
v -1.2 0.3 -0.0999999
v -1.2 0.4 -0.0999999
v -1.2 1 -0.0999999
v -1.2 1.1 -0.0999999
v -1.1 0.2 -0.0999999
v -1.1 0.3 -0.0999999
v -1.1 0.4 -0.0999999
v -1.1 0.5 -0.0999999
v -1.1 0.9 -0.0999999
v -1.1 1 -0.0999999
v -1.1 1.1 -0.0999999
v -1.1 1.2 -0.0999999
v -1 0.4 -0.0999999
v -1 0.5 -0.0999999
v -1 0.9 -0.0999999
v -1 1 -0.0999999
v 1 0.4 -0.0999999
v 1 0.5 -0.0999999
v 1 0.9 -0.0999999
v 1 1 -0.0999999
v 1.1 0.2 -0.0999999
v 1.1 0.3 -0.0999999
v 1.1 0.4 -0.0999999
v 1.1 0.5 -0.0999999
v 1.1 0.9 -0.0999999
v 1.1 1 -0.0999999
v 1.1 1.1 -0.0999999
v 1.1 1.2 -0.0999999
v 1.2 0.3 -0.0999999
v 1.2 0.4 -0.0999999
v 1.2 1 -0.0999999
v 1.2 1.1 -0.0999999
v 1.3 0.4 -0.0999999
v 1.3 1 -0.0999999
v -1.1 0.2 0.2
v 1.1 0.2 0.2
v -1.1 0.2 -0.0999999
v 1.1 0.2 -0.0999999
v -1.2 0.3 0.2
v -1.1 0.3 0.2
v 1.1 0.3 0.2
v 1.2 0.3 0.2
v -1.2 0.3 -0.0999999
v -1.1 0.3 -0.0999999
v 1.1 0.3 -0.0999999
v 1.2 0.3 -0.0999999
v -1.3 0.4 0.2
v -1.2 0.4 0.2
v 1.2 0.4 0.2
v 1.3 0.4 0.2
v -1.3 0.4 -0.0999999
v -1.2 0.4 -0.0999999
v 1.2 0.4 -0.0999999
v 1.3 0.4 -0.0999999
v -1.1 0.9 5.96046e-08
v -1 0.9 5.96046e-08
v 1 0.9 5.96046e-08
v 1.1 0.9 5.96046e-08
v -1.1 0.9 -0.0999999
v -1 0.9 -0.0999999
v 1 0.9 -0.0999999
v 1.1 0.9 -0.0999999
v -1 1 5.96046e-08
v 1 1 5.96046e-08
v -1 1 -0.0999999
v 1 1 -0.0999999
v -1 0.4 5.96046e-08
v 1 0.4 5.96046e-08
v -1 0.4 -0.0999999
v 1 0.4 -0.0999999
v -1.1 0.5 5.96046e-08
v -1 0.5 5.96046e-08
v 1 0.5 5.96046e-08
v 1.1 0.5 5.96046e-08
v -1.1 0.5 -0.0999999
v -1 0.5 -0.0999999
v 1 0.5 -0.0999999
v 1.1 0.5 -0.0999999
v -1.3 1 0.2
v -1.2 1 0.2
v 1.2 1 0.2
v 1.3 1 0.2
v -1.3 1 -0.0999999
v -1.2 1 -0.0999999
v 1.2 1 -0.0999999
v 1.3 1 -0.0999999
v -1.2 1.1 0.2
v -1.1 1.1 0.2
v 1.1 1.1 0.2
v 1.2 1.1 0.2
v -1.2 1.1 -0.0999999
v -1.1 1.1 -0.0999999
v 1.1 1.1 -0.0999999
v 1.2 1.1 -0.0999999
v -1.1 1.2 0.2
v 1.1 1.2 0.2
v -1.1 1.2 -0.0999999
v 1.1 1.2 -0.0999999

# faces
f 3/1/1 2/1/1 1/1/1
f 4/1/1 2/1/1 3/1/1
f 7/1/1 6/1/1 5/1/1
f 8/1/1 6/1/1 7/1/1
f 11/1/1 10/1/1 9/1/1
f 12/1/1 10/1/1 11/1/1
f 15/1/1 14/1/1 13/1/1
f 16/1/1 14/1/1 15/1/1
f 19/1/1 18/1/1 17/1/1
f 20/1/1 18/1/1 19/1/1
f 23/3/1 22/3/1 21/3/1
f 24/3/1 22/3/1 23/3/1
f 27/3/1 26/3/1 25/3/1
f 28/3/1 26/3/1 27/3/1
f 31/3/1 30/3/1 29/3/1
f 32/3/1 30/3/1 31/3/1
f 33/3/2 34/3/2 35/3/2
f 35/3/2 34/3/2 36/3/2
f 37/3/2 38/3/2 39/3/2
f 39/3/2 38/3/2 40/3/2
f 41/3/2 42/3/2 43/3/2
f 43/3/2 42/3/2 44/3/2
f 45/1/2 46/1/2 47/1/2
f 47/1/2 46/1/2 48/1/2
f 49/1/2 50/1/2 51/1/2
f 51/1/2 50/1/2 52/1/2
f 53/1/2 54/1/2 55/1/2
f 55/1/2 54/1/2 56/1/2
f 57/1/2 58/1/2 59/1/2
f 59/1/2 58/1/2 60/1/2
f 61/1/2 62/1/2 63/1/2
f 63/1/2 62/1/2 64/1/2
f 68/1/3 66/1/3 65/1/3
f 69/1/3 66/1/3 68/1/3
f 72/1/3 68/1/3 67/1/3
f 73/2/3 69/2/3 68/2/3
f 73/1/3 68/1/3 72/1/3
f 74/1/3 70/1/3 69/1/3
f 74/2/3 69/2/3 73/2/3
f 75/1/3 70/1/3 74/1/3
f 77/1/3 72/1/3 71/1/3
f 78/2/3 73/2/3 72/2/3
f 78/1/3 72/1/3 77/1/3
f 78/2/3 74/2/3 73/2/3
f 78/2/3 75/2/3 74/2/3
f 79/2/3 75/2/3 78/2/3
f 80/2/3 75/2/3 79/2/3
f 81/1/3 76/1/3 75/1/3
f 81/2/3 75/2/3 80/2/3
f 82/1/3 76/1/3 81/1/3
f 83/1/3 79/1/3 78/1/3
f 84/2/3 80/2/3 79/2/3
f 84/1/3 79/1/3 83/1/3
f 85/1/3 81/1/3 80/1/3
f 85/2/3 80/2/3 84/2/3
f 86/1/3 81/1/3 85/1/3
f 87/1/3 85/1/3 84/1/3
f 88/1/3 85/1/3 87/1/3
f 89/2/4 90/2/4 92/2/4
f 92/2/4 90/2/4 93/2/4
f 91/2/4 92/2/4 95/2/4
f 93/2/4 94/2/4 95/2/4
f 92/2/4 93/2/4 95/2/4
f 95/2/4 94/2/4 96/2/4
f 96/2/4 94/2/4 97/2/4
f 97/2/4 94/2/4 98/2/4
f 96/2/4 97/2/4 99/2/4
f 99/2/4 97/2/4 100/2/4
f 101/1/4 102/1/4 104/1/4
f 104/1/4 102/1/4 105/1/4
f 103/1/4 104/1/4 108/1/4
f 104/3/4 105/3/4 109/3/4
f 108/1/4 104/1/4 109/1/4
f 109/3/4 105/3/4 110/3/4
f 110/3/4 105/3/4 111/3/4
f 105/1/4 106/1/4 112/1/4
f 111/3/4 105/3/4 112/3/4
f 112/1/4 106/1/4 113/1/4
f 108/3/4 109/3/4 115/3/4
f 109/3/4 110/3/4 115/3/4
f 115/3/4 110/3/4 116/3/4
f 112/3/4 113/3/4 117/3/4
f 111/3/4 112/3/4 117/3/4
f 117/3/4 113/3/4 118/3/4
f 108/3/4 115/3/4 119/3/4
f 118/3/4 113/3/4 122/3/4
f 107/1/4 108/1/4 123/1/4
f 119/3/4 120/3/4 124/3/4
f 123/1/4 108/1/4 124/1/4
f 108/3/4 119/3/4 124/3/4
f 124/3/4 120/3/4 125/3/4
f 125/3/4 120/3/4 126/3/4
f 121/3/4 122/3/4 127/3/4
f 122/3/4 113/3/4 128/3/4
f 127/3/4 122/3/4 128/3/4
f 113/1/4 114/1/4 129/1/4
f 128/3/4 113/3/4 129/3/4
f 129/1/4 114/1/4 130/1/4
f 124/1/4 125/1/4 131/1/4
f 127/3/4 128/3/4 132/3/4
f 131/1/4 125/1/4 132/1/4
f 125/3/4 126/3/4 132/3/4
f 126/3/4 127/3/4 132/3/4
f 128/1/4 129/1/4 133/1/4
f 132/3/4 128/3/4 133/3/4
f 133/1/4 129/1/4 134/1/4
f 132/1/4 133/1/4 135/1/4
f 135/1/4 133/1/4 136/1/4
f 139/1/5 138/1/5 137/1/5
f 140/1/5 138/1/5 139/1/5
f 145/1/5 142/1/5 141/1/5
f 146/1/5 142/1/5 145/1/5
f 147/1/5 144/1/5 143/1/5
f 148/1/5 144/1/5 147/1/5
f 153/1/5 150/1/5 149/1/5
f 154/1/5 150/1/5 153/1/5
f 155/1/5 152/1/5 151/1/5
f 156/1/5 152/1/5 155/1/5
f 161/3/5 158/3/5 157/3/5
f 162/3/5 158/3/5 161/3/5
f 163/3/5 160/3/5 159/3/5
f 164/3/5 160/3/5 163/3/5
f 167/3/5 166/3/5 165/3/5
f 168/3/5 166/3/5 167/3/5
f 169/3/6 170/3/6 171/3/6
f 171/3/6 170/3/6 172/3/6
f 173/3/6 174/3/6 177/3/6
f 177/3/6 174/3/6 178/3/6
f 175/3/6 176/3/6 179/3/6
f 179/3/6 176/3/6 180/3/6
f 181/1/6 182/1/6 185/1/6
f 185/1/6 182/1/6 186/1/6
f 183/1/6 184/1/6 187/1/6
f 187/1/6 184/1/6 188/1/6
f 189/1/6 190/1/6 193/1/6
f 193/1/6 190/1/6 194/1/6
f 191/1/6 192/1/6 195/1/6
f 195/1/6 192/1/6 196/1/6
f 197/1/6 198/1/6 199/1/6
f 199/1/6 198/1/6 200/1/6
